<svg width="245" height="75" viewBox="0 0 245 75" fill="none" xmlns="http://www.w3.org/2000/svg">
<path d="M232.817 41.5905V54H224.09V41.5905L212.5 21H221.92L228.754 33.6393L235.727 21H244.5L232.817 41.5905Z" fill="#220D6D"/>
<path d="M201.007 54H191.993V28.8593H181.5V21H211.5V28.8593H201.007V54Z" fill="#220D6D"/>
<path d="M169.357 54H160.643V28.8593H150.5V21H179.5V28.8593H169.357V54Z" fill="#220D6D"/>
<path d="M141.799 54L139.707 47.8872H127.723L125.583 54H116.5L129.149 21H138.993L151.5 54H141.799ZM133.81 30.5599L130.148 41.039H137.376L133.81 30.5599Z" fill="#220D6D"/>
<path d="M115.5 54H92.5V21H101.353V46.1407H115.5V54Z" fill="#220D6D"/>
<path d="M77.0031 54H68.5V21H90.5V28.5376H77.0031V34.6504H88.2955V42.188H77.0031V54Z" fill="#220D6D"/>
<g clip-path="url(#clip0_35811_6020)">
<path d="M41.8639 7.21638V11.4016C35.3996 15.1804 23.2132 22.3074 22.2662 22.86C21.0744 22.1611 19.8786 21.4663 18.6869 20.7674C19.674 20.1904 34.5569 11.491 39.9459 8.33785C39.982 8.31753 40.0181 8.29722 40.0502 8.2769C40.0863 8.25658 40.1184 8.23627 40.1545 8.21595C41.1537 7.63084 41.7797 7.26514 41.8639 7.21638Z" fill="#220D6D"/>
<g clip-path="url(#clip1_35811_6020)">
<path d="M29.0052 36.1429L20.851 31.3726C19.9922 30.8687 19.1335 30.3689 18.2707 29.8651C17.0789 29.1703 15.887 28.4714 14.6952 27.7725L11.1157 25.6799C10.0603 25.0664 9.00895 24.4488 7.95356 23.8352L5.20874 22.2302V53.7491L32.1673 69.5105V37.9876L29.0052 36.1429ZM17.8574 53.2411C15.8951 52.0953 13.9328 50.9454 11.9664 49.7955V42.9082C13.9328 44.0581 15.8951 45.208 17.8574 46.3539V53.2411ZM17.8574 44.4116C15.8951 43.2658 13.9328 42.1159 11.9664 40.97V34.0828C13.9328 35.2286 15.8951 36.3785 17.8574 37.5244V44.4116ZM25.4096 57.6539C23.4473 56.508 21.481 55.3581 19.5187 54.2123V47.325C21.481 48.4709 23.4473 49.6208 25.4096 50.7666V57.6539ZM25.4096 48.8284C23.4473 47.6785 21.481 46.5327 19.5187 45.3828V38.4955C21.481 39.6454 23.4473 40.7913 25.4096 41.9412V48.8284Z" fill="#220D6D"/>
<path d="M40.157 8.21595C40.1209 8.2322 40.0888 8.25252 40.0526 8.27283C40.0847 8.25252 40.1209 8.2322 40.153 8.21188C40.153 8.21595 40.153 8.21595 40.153 8.21595H40.157Z" fill="#220D6D"/>
<path d="M40.157 8.21595C40.1209 8.2322 40.0888 8.25252 40.0526 8.27283C40.0847 8.25252 40.1209 8.2322 40.153 8.21188C40.153 8.21595 40.153 8.21595 40.153 8.21595H40.157Z" fill="#220D6D"/>
<path d="M39.3223 34.7735V66.2965L33.8327 69.5105V37.9876L39.3223 34.7735Z" fill="#220D6D"/>
<path d="M50.0568 15.9524V47.4754L40.9877 52.7739V33.3189C40.9877 33.0182 40.8312 32.7378 40.5703 32.5875L31.0879 27.0452L33.4153 25.684C34.254 25.1923 35.0927 24.7007 35.9314 24.2131L47.7293 17.3136C48.5078 16.8626 49.2823 16.4075 50.0568 15.9524Z" fill="#220D6D"/>
<path d="M62.5489 16.1881L36.4531 0.930493C34.3222 -0.31287 31.6778 -0.31287 29.5469 0.930493L3.45109 16.1881C1.32024 17.4315 0 19.7557 0 22.2465V52.7576C0 55.2484 1.32024 57.5685 3.45109 58.8119L29.5469 74.0695C30.6143 74.6912 31.8062 75.0041 33.002 75.0041C34.1978 75.0041 35.3897 74.6912 36.4531 74.0695L62.5489 58.8119C64.6798 57.5685 66 55.2484 66 52.7576V22.2465C66 19.7557 64.6798 17.4355 62.5489 16.1922V16.1881ZM63.3354 52.7536C63.3354 54.2813 62.5248 55.7076 61.2166 56.4715L35.1208 71.7291C33.8126 72.493 32.1874 72.493 30.8832 71.7291L4.78336 56.4755C3.47516 55.7116 2.66456 54.2854 2.66456 52.7576V22.2465C2.66456 20.7187 3.47516 19.2924 4.78336 18.5286L30.8832 3.27501C31.5333 2.89306 32.2676 2.69802 33.002 2.69802C33.7364 2.69802 34.4667 2.89306 35.1208 3.27501L41.8665 7.21638V11.4016C43.5439 10.4182 44.836 9.66654 45.446 9.30897L61.2166 18.5286C62.5248 19.2924 63.3354 20.7187 63.3354 22.2465V52.7576V52.7536Z" fill="#220D6D"/>
<path d="M61.2166 18.5245L45.446 9.30491C44.836 9.66248 43.5439 10.4142 41.8665 11.3975C35.4017 15.1763 23.2146 22.3033 22.2675 22.8559C21.0717 22.1571 19.8798 21.4622 18.688 20.7634C19.6752 20.1864 34.555 11.4869 39.9483 8.33785C39.9804 8.31753 40.0165 8.29722 40.0526 8.27284C40.0847 8.25252 40.1209 8.2322 40.153 8.21189C40.153 8.21595 40.153 8.21595 40.153 8.21595C41.1482 7.63084 41.7782 7.26514 41.8625 7.21232L35.1168 3.27094C34.4627 2.88899 33.7283 2.69395 32.998 2.69395C32.2676 2.69395 31.5293 2.88899 30.8792 3.27094L4.78336 18.5245C3.47515 19.2884 2.66455 20.7146 2.66455 22.2424V52.7536C2.66455 54.2813 3.47515 55.7076 4.78336 56.4714L30.8832 71.7291C32.1874 72.493 33.8126 72.493 35.1208 71.7291L61.2166 56.4714C62.5248 55.7076 63.3354 54.2813 63.3354 52.7536V22.2465C63.3354 20.7187 62.5248 19.2924 61.2166 18.5286V18.5245ZM32.1673 69.5064L5.20872 53.745V22.2261L7.95354 23.8311C9.00893 24.4447 10.0603 25.0623 11.1157 25.6759L14.6952 27.7684C15.887 28.4673 17.0789 29.1662 18.2707 29.861C19.1335 30.3649 19.9922 30.8647 20.851 31.3685L29.0052 36.1388L32.1673 37.9835V69.5064ZM39.3223 66.2965L33.8327 69.5064V37.9835L39.3223 34.7735V66.2965ZM40.5703 32.5834L31.0879 27.0411L33.4153 25.6799C34.254 25.1883 35.0927 24.6966 35.9314 24.209L47.7293 17.3096C48.5078 16.8585 49.2823 16.4035 50.0568 15.9484V47.4713L40.9876 52.7698V33.3148C40.9876 33.0141 40.8311 32.7338 40.5703 32.5834ZM60.7913 53.745L40.9876 65.3213V54.7202L51.3048 48.6862C51.4372 48.609 51.5375 48.5034 51.6098 48.3774C51.682 48.2514 51.7221 48.1052 51.7221 47.9548V15.9524L54.0536 17.3096C55.113 17.9312 56.1724 18.5529 57.2318 19.1705L60.7913 21.2509V53.745Z" fill="#F9F8FF"/>
<path d="M25.4096 50.7666V57.6539C23.4473 56.508 21.481 55.3581 19.5187 54.2123V47.325C21.481 48.4709 23.4473 49.6208 25.4096 50.7666Z" fill="#F9F8FF"/>
<path d="M17.8574 46.3498V53.2371C15.8951 52.0912 13.9327 50.9413 11.9664 49.7914V42.9042C13.9327 44.0541 15.8951 45.204 17.8574 46.3498Z" fill="#F9F8FF"/>
<path d="M17.8574 37.5203V44.4076C15.8951 43.2617 13.9327 42.1118 11.9664 40.966V34.0787C13.9327 35.2246 15.8951 36.3745 17.8574 37.5203Z" fill="#F9F8FF"/>
<path d="M25.4096 41.9371V48.8244C23.4473 47.6744 21.481 46.5286 19.5187 45.3787V38.4914C21.481 39.6413 23.4473 40.7872 25.4096 41.9371Z" fill="#F9F8FF"/>
<path d="M60.7913 53.745L40.9877 65.3213V54.7202L51.3048 48.6862C51.4372 48.609 51.5376 48.5034 51.6098 48.3774L60.7913 53.745Z" fill="#220D6D"/>
<path d="M60.7913 21.255V53.7491L51.6098 48.3815C51.682 48.2555 51.7221 48.1092 51.7221 47.9589V15.9524L54.0536 17.3096C55.113 17.9313 56.1724 18.5529 57.2318 19.1706L60.7913 21.251V21.255Z" fill="#220D6D"/>
<path d="M41.8665 7.21638V11.4016C35.4017 15.1804 23.2146 22.3074 22.2675 22.86C21.0717 22.1611 19.8798 21.4663 18.688 20.7674C19.6752 20.1904 34.555 11.491 39.9483 8.34191C39.9804 8.3216 40.0165 8.30128 40.0526 8.2769C40.0888 8.25658 40.1209 8.23627 40.157 8.22001C41.1522 7.6349 41.7822 7.26921 41.8665 7.21638Z" fill="#220D6D"/>
</g>
</g>
<defs>
<clipPath id="clip0_35811_6020">
<rect width="66" height="75" fill="white"/>
</clipPath>
<clipPath id="clip1_35811_6020">
<rect width="66" height="75" fill="white"/>
</clipPath>
</defs>
</svg>
