<svg width="147" height="45" viewBox="0 0 147 45" fill="none" xmlns="http://www.w3.org/2000/svg">
<path d="M139.379 24.9535V32.3986H134.143V24.9535L127.19 12.6002H132.841L136.941 20.1832L141.124 12.6002H146.388L139.379 24.9535Z" fill="#220D6D"/>
<path d="M120.295 32.3986H114.886V17.3154H108.591V12.6002H126.59V17.3154H120.295V32.3986Z" fill="#220D6D"/>
<path d="M101.306 32.3986H96.078V17.3154H89.9927V12.6002H107.391V17.3154H101.306V32.3986Z" fill="#220D6D"/>
<path d="M84.7725 32.3986L83.5171 28.7312H76.3275L75.0436 32.3986H69.5944L77.1834 12.6002H83.0892L90.5927 32.3986H84.7725ZM79.9794 18.3357L77.7826 24.6226H82.1192L79.9794 18.3357Z" fill="#220D6D"/>
<path d="M68.9943 32.3986H55.1954V12.6002H60.507V27.6834H68.9943V32.3986Z" fill="#220D6D"/>
<path d="M45.8981 32.3986H40.7966V12.6002H53.9956V17.1224H45.8981V20.7898H52.673V25.312H45.8981V32.3986Z" fill="#220D6D"/>
<path d="M17.4017 21.6852L12.5096 18.8232C11.9944 18.521 11.4792 18.2211 10.9615 17.9188C10.2465 17.502 9.53146 17.0827 8.81642 16.6634L6.6689 15.4079C6.03571 15.0398 5.40494 14.6693 4.77176 14.3012L3.125 13.3383V32.248L19.2988 41.7041V22.7919L17.4017 21.6852ZM10.7136 31.9433C9.53627 31.2559 8.35899 30.566 7.17929 29.8761V25.7441C8.35899 26.434 9.53627 27.1238 10.7136 27.8113V31.9433ZM10.7136 26.646C9.53627 25.9586 8.35899 25.2687 7.17929 24.5812V20.4492C8.35899 21.1367 9.53627 21.8266 10.7136 22.514V26.646ZM15.2445 34.5907C14.0673 33.9033 12.8876 33.2134 11.7103 32.5259V28.3939C12.8876 29.0814 14.0673 29.7713 15.2445 30.4587V34.5907ZM15.2445 29.2959C14.0673 28.606 12.8876 27.9186 11.7103 27.2287V23.0966C12.8876 23.7865 14.0673 24.474 15.2445 25.1639V29.2959Z" fill="#8247E5"/>
<path d="M24.0918 4.9304C24.0702 4.9401 24.0511 4.95222 24.0295 4.96434C24.0487 4.95222 24.0702 4.9401 24.0894 4.92798C24.0894 4.9304 24.0894 4.9304 24.0894 4.9304H24.0918Z" fill="#D25400"/>
<path d="M24.0918 4.9304C24.0702 4.9401 24.0511 4.95222 24.0295 4.96434C24.0487 4.95222 24.0702 4.9401 24.0894 4.92798C24.0894 4.9304 24.0894 4.9304 24.0894 4.9304H24.0918Z" fill="#D25400"/>
<path d="M23.5916 20.8635V39.7757L20.2981 41.704V22.7918L23.5916 20.8635Z" fill="#A673EF"/>
<path d="M30.0316 9.57178V28.484L24.5905 31.6628V19.9908C24.5905 19.8104 24.4966 19.6422 24.3401 19.552L18.6511 16.2269L20.0475 15.4102C20.5507 15.1153 21.0538 14.8203 21.557 14.5278L28.6352 10.3884C29.1022 10.1178 29.5669 9.84481 30.0316 9.57178Z" fill="#6433C4"/>
<path d="M37.5263 9.71329L21.8701 0.559468C20.5917 -0.186489 19.0051 -0.186489 17.7267 0.559468L2.07048 9.71329C0.79208 10.4592 0 11.8537 0 13.348V31.6532C0 33.1476 0.79208 34.5395 2.07048 35.2855L17.7267 44.4393C18.3671 44.8123 19.0821 45 19.7996 45C20.517 45 21.2321 44.8123 21.8701 44.4393L37.5263 35.2855C38.8047 34.5395 39.5968 33.1476 39.5968 31.6532V13.348C39.5968 11.8537 38.8047 10.4617 37.5263 9.71573V9.71329ZM37.9982 31.6508C37.9982 32.5674 37.5119 33.423 36.727 33.8813L21.0708 43.0352C20.2859 43.4935 19.3109 43.4935 18.5284 43.0352L2.86979 33.8838C2.08493 33.4255 1.59861 32.5698 1.59861 31.6532V13.348C1.59861 12.4314 2.08493 11.5757 2.86979 11.1174L18.5284 1.96606C18.9184 1.73691 19.359 1.6199 19.7996 1.6199C20.2402 1.6199 20.6783 1.73691 21.0708 1.96606L25.1178 4.3307V6.8416C26.1242 6.25166 26.8994 5.80067 27.2654 5.58615L36.727 11.1174C37.5119 11.5757 37.9982 12.4314 37.9982 13.348V31.6532V31.6508Z" fill="#F9F8FF"/>
<path d="M36.727 11.1149L27.2654 5.58356C26.8995 5.79808 26.1242 6.24907 25.1179 6.83901C21.2393 9.10614 13.9276 13.382 13.3595 13.7135C12.642 13.2942 11.927 12.8774 11.2119 12.4581C11.8042 12.1119 20.7313 6.89264 23.9671 5.00337C23.9863 4.99118 24.008 4.97899 24.0297 4.96437C24.0489 4.95218 24.0706 4.93999 24.0899 4.9278C24.0899 4.93024 24.0899 4.93024 24.0899 4.93024C24.6869 4.5792 25.0649 4.3598 25.1155 4.32811L21.0684 1.96347C20.676 1.73432 20.2354 1.61731 19.7972 1.61731C19.359 1.61731 18.9161 1.73432 18.526 1.96347L2.86981 11.1149C2.08496 11.5732 1.59863 12.4288 1.59863 13.3454V31.6506C1.59863 32.5672 2.08496 33.4229 2.86981 33.8812L18.5284 43.035C19.3109 43.4933 20.2859 43.4933 21.0708 43.035L36.727 33.8812C37.5119 33.4229 37.9982 32.5672 37.9982 31.6506V13.3479C37.9982 12.4313 37.5119 11.5756 36.727 11.1173V11.1149ZM19.2989 41.7015L3.12501 32.2454V13.3357L4.77177 14.2986C5.40495 14.6667 6.03573 15.0372 6.66891 15.4053L8.81643 16.6608C9.53147 17.0801 10.2465 17.4994 10.9615 17.9162C11.4792 18.2185 11.9944 18.5184 12.5096 18.8206L17.4017 21.6826L19.2989 22.7893V41.7015ZM23.5915 39.7757L20.298 41.7015V22.7893L23.5915 20.8635V39.7757ZM24.3402 19.5495L18.6512 16.2244L20.0476 15.4078C20.5508 15.1128 21.054 14.8178 21.5571 14.5253L28.6353 10.386C29.1024 10.1154 29.567 9.84234 30.0317 9.56931V28.4815L24.5906 31.6604V19.9883C24.5906 19.8079 24.4967 19.6397 24.3402 19.5495ZM36.4718 32.2454L24.5906 39.1906V32.8305L30.7804 29.2104C30.8599 29.1641 30.92 29.1007 30.9634 29.0251C31.0067 28.9496 31.0308 28.8618 31.0308 28.7716V9.57175L32.4296 10.386C33.0652 10.7589 33.7007 11.1319 34.3363 11.5025L36.4718 12.7506V32.2454Z" fill="#DCD5FF"/>
<path d="M15.2447 30.4586V34.5906C14.0674 33.9032 12.8877 33.2133 11.7104 32.5258V28.3938C12.8877 29.0812 14.0674 29.7711 15.2447 30.4586Z" fill="#F9F8FF"/>
<path d="M10.7135 27.8087V31.9407C9.53618 31.2533 8.35889 30.5634 7.1792 29.8735V25.7415C8.35889 26.4313 9.53618 27.1212 10.7135 27.8087Z" fill="#F9F8FF"/>
<path d="M10.7135 22.5114V26.6435C9.53618 25.956 8.35889 25.2661 7.1792 24.5787V20.4467C8.35889 21.1341 9.53618 21.824 10.7135 22.5114Z" fill="#F9F8FF"/>
<path d="M15.2447 25.1613V29.2934C14.0674 28.6035 12.8877 27.916 11.7104 27.2261V23.0941C12.8877 23.784 14.0674 24.4715 15.2447 25.1613Z" fill="#F9F8FF"/>
<path d="M36.472 32.2454L24.5908 39.1906V32.8305L30.7806 29.2104C30.8601 29.1641 30.9202 29.1007 30.9636 29.0251L36.472 32.2454Z" fill="#6433C4"/>
<path d="M36.4718 12.7531V32.2479L30.9634 29.0276C31.0067 28.952 31.0308 28.8643 31.0308 28.7741V9.57178L32.4296 10.386C33.0652 10.759 33.7007 11.132 34.3363 11.5025L36.4718 12.7506V12.7531Z" fill="#220D6D"/>
<path d="M25.1163 4.33057V6.84147C21.238 9.10859 13.9267 13.3844 13.3586 13.716C12.6436 13.2967 11.9262 12.8798 11.2112 12.4605C11.8034 12.1144 20.7324 6.8951 23.9655 5.00339C23.9872 4.9912 24.0089 4.97901 24.0281 4.96682C24.0498 4.95464 24.0691 4.94245 24.0907 4.93026C24.6902 4.57922 25.0657 4.35982 25.1163 4.33057Z" fill="#4A23A4"/>
</svg>
