<svg width="113" height="128" viewBox="0 0 113 128" fill="none" xmlns="http://www.w3.org/2000/svg">
<g clip-path="url(#clip0_35811_5984)">
<path d="M49.6604 61.6838L35.6994 53.5425C34.2291 52.6826 32.7588 51.8297 31.2816 50.9698C29.2411 49.7839 27.2005 48.5912 25.16 47.3984L19.0314 43.8271C17.2245 42.7799 15.4244 41.7259 13.6174 40.6787L8.91798 37.9395V91.7317L55.0744 118.631V64.8322L49.6604 61.6838ZM30.574 90.8649C27.2143 88.9093 23.8546 86.9468 20.488 84.9843V73.23C23.8546 75.1925 27.2143 77.1551 30.574 79.1106V90.8649ZM30.574 75.7959C27.2143 73.8403 23.8546 71.8778 20.488 69.9222V58.1679C23.8546 60.1235 27.2143 62.086 30.574 64.0416V75.7959ZM43.5043 98.3959C40.1446 96.4404 36.7781 94.4778 33.4184 92.5223V80.768C36.7781 82.7236 40.1446 84.6861 43.5043 86.6417V98.3959ZM43.5043 83.3338C40.1446 81.3713 36.7781 79.4158 33.4184 77.4533V65.699C36.7781 67.6615 40.1446 69.6171 43.5043 71.5796V83.3338Z" fill="#220D6D"/>
<path d="M68.7536 14.0219C68.6918 14.0496 68.6368 14.0843 68.575 14.119C68.63 14.0843 68.6918 14.0496 68.7468 14.015C68.7468 14.0219 68.7468 14.0219 68.7468 14.0219H68.7536Z" fill="#220D6D"/>
<path d="M68.7536 14.0219C68.6918 14.0496 68.6368 14.0843 68.575 14.119C68.63 14.0843 68.6918 14.0496 68.7468 14.015C68.7468 14.0219 68.7468 14.0219 68.7468 14.0219H68.7536Z" fill="#220D6D"/>
<path d="M67.3245 59.3468V113.146L57.9256 118.631V64.8322L67.3245 59.3468Z" fill="#220D6D"/>
<path d="M85.7033 27.2255V81.0246L70.1758 90.0674V56.8642C70.1758 56.3511 69.9079 55.8726 69.4613 55.616L53.2262 46.1571L57.2111 43.834C58.647 42.9949 60.083 42.1558 61.5189 41.3237L81.7184 29.5486C83.0513 28.7788 84.3773 28.0022 85.7033 27.2255Z" fill="#220D6D"/>
<path d="M107.091 27.6276L62.4121 1.58796C58.7638 -0.53405 54.2362 -0.53405 50.5879 1.58796L5.90868 27.6276C2.26041 29.7496 0 33.7162 0 37.9672V90.0396C0 94.2905 2.26041 98.2502 5.90868 100.372L50.5879 126.412C52.4155 127.473 54.456 128.007 56.5034 128.007C58.5509 128.007 60.5914 127.473 62.4121 126.412L107.091 100.372C110.74 98.2502 113 94.2905 113 90.0396V37.9672C113 33.7162 110.74 29.7566 107.091 27.6345V27.6276ZM108.438 90.0326C108.438 92.6401 107.05 95.0741 104.81 96.3779L60.1311 122.418C57.8913 123.721 55.1087 123.721 52.8758 122.418L8.1897 96.3848C5.9499 95.0811 4.56205 92.647 4.56205 90.0396V37.9672C4.56205 35.3598 5.9499 32.9257 8.1897 31.622L52.8758 5.58926C53.9888 4.9374 55.2461 4.60453 56.5034 4.60453C57.7607 4.60453 59.0112 4.9374 60.1311 5.58926L71.6805 12.3159V19.4586C74.5524 17.7804 76.7647 16.4975 77.809 15.8872L104.81 31.622C107.05 32.9257 108.438 35.3598 108.438 37.9672V90.0396V90.0326Z" fill="#220D6D"/>
<path d="M104.81 31.6151L77.809 15.8804C76.7647 16.4906 74.5524 17.7735 71.6805 19.4517C60.612 25.901 39.7462 38.0644 38.1247 39.0075C36.0773 37.8147 34.0367 36.6289 31.9962 35.4361C33.6863 34.4514 59.1623 19.6043 68.3964 14.2299C68.4513 14.1953 68.5132 14.1606 68.575 14.119C68.63 14.0843 68.6918 14.0496 68.7468 14.015C68.7468 14.0219 68.7468 14.0219 68.7468 14.0219C70.4507 13.0233 71.5293 12.3992 71.6736 12.309L60.1242 5.5824C59.0043 4.93054 57.747 4.59768 56.4966 4.59768C55.2461 4.59768 53.9819 4.93054 52.8689 5.5824L8.1897 31.6151C5.9499 32.9188 4.56205 35.3529 4.56205 37.9603V90.0327C4.56205 92.6402 5.9499 95.0742 8.1897 96.3779L52.8758 122.418C55.1087 123.721 57.8913 123.721 60.1311 122.418L104.81 96.3779C107.05 95.0742 108.438 92.6402 108.438 90.0327V37.9673C108.438 35.3598 107.05 32.9258 104.81 31.6221V31.6151ZM55.0744 118.624L8.91798 91.7248V37.9326L13.6174 40.6718C15.4244 41.7189 17.2245 42.773 19.0314 43.8201L25.16 47.3915C27.2005 48.5842 29.2411 49.777 31.2816 50.9628C32.7588 51.8227 34.2291 52.6757 35.6994 53.5356L49.6604 61.6769L55.0744 64.8252V118.624ZM67.3246 113.146L57.9256 118.624V64.8252L67.3246 59.3468V113.146ZM69.4613 55.6091L53.2262 46.1502L57.2111 43.8271C58.647 42.988 60.083 42.1489 61.5189 41.3167L81.7184 29.5417C83.0513 28.7719 84.3773 27.9952 85.7033 27.2185V81.0177L70.1758 90.0605V56.8573C70.1758 56.3441 69.9079 55.8656 69.4613 55.6091ZM104.082 91.7248L70.1758 111.482V93.3891L87.84 83.0911C88.0668 82.9594 88.2385 82.7791 88.3622 82.5641C88.4859 82.3491 88.5546 82.0995 88.5546 81.8429V27.2255L92.5464 29.5417C94.3602 30.6027 96.174 31.6637 97.9878 32.7177L104.082 36.2683V91.7248Z" fill="#F9F8FF"/>
<path d="M43.5043 86.6417V98.3959C40.1446 96.4403 36.7781 94.4778 33.4184 92.5223V80.768C36.7781 82.7236 40.1446 84.6861 43.5043 86.6417Z" fill="#F9F8FF"/>
<path d="M30.574 79.1037V90.858C27.2143 88.9024 23.8546 86.9399 20.488 84.9774V73.2231C23.8546 75.1856 27.2143 77.1481 30.574 79.1037Z" fill="#F9F8FF"/>
<path d="M30.574 64.0347V75.7889C27.2143 73.8333 23.8546 71.8708 20.488 69.9153V58.161C23.8546 60.1166 27.2143 62.0791 30.574 64.0347Z" fill="#F9F8FF"/>
<path d="M43.5043 71.5727V83.3269C40.1446 81.3644 36.7781 79.4088 33.4184 77.4463V65.6921C36.7781 67.6546 40.1446 69.6101 43.5043 71.5727Z" fill="#F9F8FF"/>
<path d="M104.082 91.7248L70.1758 111.482V93.3891L87.84 83.0911C88.0668 82.9594 88.2385 82.7791 88.3622 82.5641L104.082 91.7248Z" fill="#220D6D"/>
<path d="M104.082 36.2752V91.7317L88.3622 82.571C88.4859 82.356 88.5546 82.1064 88.5546 81.8498V27.2255L92.5463 29.5417C94.3602 30.6027 96.174 31.6637 97.9878 32.7177L104.082 36.2683V36.2752Z" fill="#220D6D"/>
<path d="M71.6805 12.316V19.4587C60.612 25.9079 39.7462 38.0713 38.1247 39.0144C36.0773 37.8216 34.0367 36.6358 31.9962 35.4431C33.6863 34.4583 59.1623 19.6112 68.3964 14.2369C68.4513 14.2022 68.5132 14.1675 68.575 14.1259C68.6368 14.0912 68.6918 14.0566 68.7536 14.0288C70.4575 13.0302 71.5362 12.4061 71.6805 12.316Z" fill="#220D6D"/>
</g>
<defs>
<clipPath id="clip0_35811_5984">
<rect width="113" height="128" fill="white"/>
</clipPath>
</defs>
</svg>
